<mxfile host="app.diagrams.net" modified="2023-05-22T15:37:46.491Z" agent="Mozilla/5.0 (X11; Linux x86_64) AppleWebKit/537.36 (KHTML, like Gecko) Chrome/113.0.0.0 Safari/537.36" etag="J8JFCGqyWy9iI3Ojg4nq" version="21.3.2" type="github">
  <diagram name="Página-1" id="rrMdQgjRT9Jm382TCVCh">
    <mxGraphModel dx="2514" dy="4312" grid="1" gridSize="10" guides="1" tooltips="1" connect="1" arrows="1" fold="1" page="1" pageScale="1" pageWidth="827" pageHeight="1169" math="0" shadow="0">
      <root>
        <mxCell id="0" />
        <mxCell id="1" parent="0" />
        <mxCell id="3TYF7wO166dfYitTr4Mq-1" style="edgeStyle=orthogonalEdgeStyle;rounded=0;orthogonalLoop=1;jettySize=auto;html=1;endArrow=none;endFill=0;align=center;" edge="1" parent="1" source="3TYF7wO166dfYitTr4Mq-3" target="3TYF7wO166dfYitTr4Mq-7">
          <mxGeometry relative="1" as="geometry" />
        </mxCell>
        <mxCell id="3TYF7wO166dfYitTr4Mq-2" style="edgeStyle=orthogonalEdgeStyle;rounded=1;orthogonalLoop=1;jettySize=auto;html=1;entryX=0.5;entryY=0;entryDx=0;entryDy=0;endArrow=none;endFill=0;align=center;" edge="1" parent="1" source="3TYF7wO166dfYitTr4Mq-3" target="3TYF7wO166dfYitTr4Mq-22">
          <mxGeometry relative="1" as="geometry" />
        </mxCell>
        <mxCell id="3TYF7wO166dfYitTr4Mq-3" value="PACIENTE" style="rounded=1;whiteSpace=wrap;html=1;fillColor=#d5e8d4;strokeColor=#82b366;fontStyle=1;align=center;" vertex="1" parent="1">
          <mxGeometry x="40.00000000000006" y="-2280" width="95" height="40" as="geometry" />
        </mxCell>
        <mxCell id="3TYF7wO166dfYitTr4Mq-4" style="edgeStyle=orthogonalEdgeStyle;rounded=0;orthogonalLoop=1;jettySize=auto;html=1;entryX=0;entryY=0.5;entryDx=0;entryDy=0;endArrow=none;endFill=0;align=center;" edge="1" parent="1" source="3TYF7wO166dfYitTr4Mq-5" target="3TYF7wO166dfYitTr4Mq-9">
          <mxGeometry relative="1" as="geometry" />
        </mxCell>
        <mxCell id="3TYF7wO166dfYitTr4Mq-5" value="MEDICO" style="rounded=1;whiteSpace=wrap;html=1;fillColor=#d5e8d4;strokeColor=#82b366;fontStyle=1;align=center;" vertex="1" parent="1">
          <mxGeometry x="345" y="-2280" width="95" height="40" as="geometry" />
        </mxCell>
        <mxCell id="3TYF7wO166dfYitTr4Mq-6" style="edgeStyle=orthogonalEdgeStyle;rounded=0;orthogonalLoop=1;jettySize=auto;html=1;endArrow=none;endFill=0;align=center;" edge="1" parent="1" source="3TYF7wO166dfYitTr4Mq-7" target="3TYF7wO166dfYitTr4Mq-5">
          <mxGeometry relative="1" as="geometry" />
        </mxCell>
        <mxCell id="3TYF7wO166dfYitTr4Mq-7" value="es atendido" style="shape=rhombus;perimeter=rhombusPerimeter;whiteSpace=wrap;html=1;align=center;fillColor=#fff2cc;strokeColor=#d6b656;fontSize=15;" vertex="1" parent="1">
          <mxGeometry x="190" y="-2280" width="95" height="40" as="geometry" />
        </mxCell>
        <mxCell id="3TYF7wO166dfYitTr4Mq-8" style="edgeStyle=orthogonalEdgeStyle;rounded=0;orthogonalLoop=1;jettySize=auto;html=1;exitX=1;exitY=0.5;exitDx=0;exitDy=0;entryX=0;entryY=0.5;entryDx=0;entryDy=0;endArrow=none;endFill=0;align=center;" edge="1" parent="1" source="3TYF7wO166dfYitTr4Mq-9" target="3TYF7wO166dfYitTr4Mq-11">
          <mxGeometry relative="1" as="geometry" />
        </mxCell>
        <mxCell id="3TYF7wO166dfYitTr4Mq-9" value="pertenece" style="shape=rhombus;perimeter=rhombusPerimeter;whiteSpace=wrap;html=1;align=center;fillColor=#fff2cc;strokeColor=#d6b656;fontSize=15;" vertex="1" parent="1">
          <mxGeometry x="510" y="-2280" width="95" height="40" as="geometry" />
        </mxCell>
        <mxCell id="3TYF7wO166dfYitTr4Mq-10" style="edgeStyle=orthogonalEdgeStyle;rounded=1;orthogonalLoop=1;jettySize=auto;html=1;entryX=1;entryY=0.5;entryDx=0;entryDy=0;exitX=0.5;exitY=1;exitDx=0;exitDy=0;endArrow=none;endFill=0;" edge="1" parent="1" source="3TYF7wO166dfYitTr4Mq-11" target="3TYF7wO166dfYitTr4Mq-14">
          <mxGeometry relative="1" as="geometry" />
        </mxCell>
        <mxCell id="3TYF7wO166dfYitTr4Mq-11" value="ESPECIALIDAD" style="rounded=1;whiteSpace=wrap;html=1;fillColor=#d5e8d4;strokeColor=#82b366;fontStyle=1;align=center;" vertex="1" parent="1">
          <mxGeometry x="680" y="-2280" width="95" height="40" as="geometry" />
        </mxCell>
        <mxCell id="3TYF7wO166dfYitTr4Mq-12" value="PLANTA" style="rounded=1;whiteSpace=wrap;html=1;fillColor=#d5e8d4;strokeColor=#82b366;fontStyle=1;align=center;" vertex="1" parent="1">
          <mxGeometry x="345" y="-1940" width="95" height="40" as="geometry" />
        </mxCell>
        <mxCell id="3TYF7wO166dfYitTr4Mq-13" style="edgeStyle=orthogonalEdgeStyle;rounded=1;orthogonalLoop=1;jettySize=auto;html=1;entryX=1;entryY=0.5;entryDx=0;entryDy=0;endArrow=none;endFill=0;" edge="1" parent="1" source="3TYF7wO166dfYitTr4Mq-14" target="3TYF7wO166dfYitTr4Mq-12">
          <mxGeometry relative="1" as="geometry" />
        </mxCell>
        <mxCell id="3TYF7wO166dfYitTr4Mq-14" value="se encuentra" style="shape=rhombus;perimeter=rhombusPerimeter;whiteSpace=wrap;html=1;align=center;fillColor=#fff2cc;strokeColor=#d6b656;fontSize=15;" vertex="1" parent="1">
          <mxGeometry x="510" y="-1940" width="95" height="40" as="geometry" />
        </mxCell>
        <mxCell id="3TYF7wO166dfYitTr4Mq-15" value="TRATAMIENTO" style="rounded=1;whiteSpace=wrap;html=1;fillColor=#d5e8d4;strokeColor=#82b366;fontStyle=1" vertex="1" parent="1">
          <mxGeometry x="-280" y="-2280" width="95" height="40" as="geometry" />
        </mxCell>
        <mxCell id="3TYF7wO166dfYitTr4Mq-16" style="edgeStyle=orthogonalEdgeStyle;rounded=0;orthogonalLoop=1;jettySize=auto;html=1;endArrow=none;endFill=0;" edge="1" parent="1" source="3TYF7wO166dfYitTr4Mq-18" target="3TYF7wO166dfYitTr4Mq-3">
          <mxGeometry relative="1" as="geometry" />
        </mxCell>
        <mxCell id="3TYF7wO166dfYitTr4Mq-17" style="edgeStyle=orthogonalEdgeStyle;rounded=0;orthogonalLoop=1;jettySize=auto;html=1;entryX=0.5;entryY=1;entryDx=0;entryDy=0;endArrow=none;endFill=0;" edge="1" parent="1" source="3TYF7wO166dfYitTr4Mq-18" target="3TYF7wO166dfYitTr4Mq-20">
          <mxGeometry relative="1" as="geometry" />
        </mxCell>
        <mxCell id="3TYF7wO166dfYitTr4Mq-18" value="realiza" style="shape=rhombus;perimeter=rhombusPerimeter;whiteSpace=wrap;html=1;align=center;fillColor=#fff2cc;strokeColor=#d6b656;fontSize=15;" vertex="1" parent="1">
          <mxGeometry x="40" y="-2400" width="95" height="40" as="geometry" />
        </mxCell>
        <mxCell id="3TYF7wO166dfYitTr4Mq-19" style="edgeStyle=orthogonalEdgeStyle;rounded=0;orthogonalLoop=1;jettySize=auto;html=1;entryX=0;entryY=0.5;entryDx=0;entryDy=0;endArrow=none;endFill=0;" edge="1" parent="1" source="3TYF7wO166dfYitTr4Mq-20" target="3TYF7wO166dfYitTr4Mq-24">
          <mxGeometry relative="1" as="geometry" />
        </mxCell>
        <mxCell id="3TYF7wO166dfYitTr4Mq-20" value="CITA" style="rounded=1;whiteSpace=wrap;html=1;fillColor=#d5e8d4;strokeColor=#82b366;fontStyle=1;align=center;" vertex="1" parent="1">
          <mxGeometry x="40.00000000000006" y="-2540" width="95" height="40" as="geometry" />
        </mxCell>
        <mxCell id="3TYF7wO166dfYitTr4Mq-21" style="edgeStyle=orthogonalEdgeStyle;rounded=0;orthogonalLoop=1;jettySize=auto;html=1;entryX=0.5;entryY=0;entryDx=0;entryDy=0;endArrow=none;endFill=0;" edge="1" parent="1" source="3TYF7wO166dfYitTr4Mq-22" target="3TYF7wO166dfYitTr4Mq-32">
          <mxGeometry relative="1" as="geometry" />
        </mxCell>
        <mxCell id="3TYF7wO166dfYitTr4Mq-22" value="ingresa" style="shape=rhombus;perimeter=rhombusPerimeter;whiteSpace=wrap;html=1;align=center;fillColor=#fff2cc;strokeColor=#d6b656;fontSize=15;" vertex="1" parent="1">
          <mxGeometry x="40" y="-2100" width="95" height="40" as="geometry" />
        </mxCell>
        <mxCell id="3TYF7wO166dfYitTr4Mq-23" style="edgeStyle=orthogonalEdgeStyle;rounded=0;orthogonalLoop=1;jettySize=auto;html=1;entryX=0;entryY=0.5;entryDx=0;entryDy=0;endArrow=none;endFill=0;" edge="1" parent="1" source="3TYF7wO166dfYitTr4Mq-24" target="3TYF7wO166dfYitTr4Mq-25">
          <mxGeometry relative="1" as="geometry" />
        </mxCell>
        <mxCell id="3TYF7wO166dfYitTr4Mq-24" value="son gestionadas" style="shape=rhombus;perimeter=rhombusPerimeter;whiteSpace=wrap;html=1;align=center;fillColor=#fff2cc;strokeColor=#d6b656;fontSize=15;" vertex="1" parent="1">
          <mxGeometry x="250" y="-2540" width="95" height="40" as="geometry" />
        </mxCell>
        <mxCell id="3TYF7wO166dfYitTr4Mq-25" value="ADMINISTRACIÓN" style="rounded=1;whiteSpace=wrap;html=1;fillColor=#d5e8d4;strokeColor=#82b366;fontStyle=1;align=center;" vertex="1" parent="1">
          <mxGeometry x="415" y="-2540" width="125" height="40" as="geometry" />
        </mxCell>
        <mxCell id="3TYF7wO166dfYitTr4Mq-26" style="edgeStyle=orthogonalEdgeStyle;rounded=0;orthogonalLoop=1;jettySize=auto;html=1;entryX=0;entryY=0.5;entryDx=0;entryDy=0;endArrow=none;endFill=0;" edge="1" parent="1" source="3TYF7wO166dfYitTr4Mq-28" target="3TYF7wO166dfYitTr4Mq-3">
          <mxGeometry relative="1" as="geometry" />
        </mxCell>
        <mxCell id="3TYF7wO166dfYitTr4Mq-27" style="edgeStyle=orthogonalEdgeStyle;rounded=1;orthogonalLoop=1;jettySize=auto;html=1;exitX=0;exitY=0.5;exitDx=0;exitDy=0;endArrow=none;endFill=0;" edge="1" parent="1" source="3TYF7wO166dfYitTr4Mq-28" target="3TYF7wO166dfYitTr4Mq-15">
          <mxGeometry relative="1" as="geometry" />
        </mxCell>
        <mxCell id="3TYF7wO166dfYitTr4Mq-28" value="recibe" style="shape=rhombus;perimeter=rhombusPerimeter;whiteSpace=wrap;html=1;align=center;fillColor=#fff2cc;strokeColor=#d6b656;fontSize=15;" vertex="1" parent="1">
          <mxGeometry x="-120" y="-2280" width="95" height="40" as="geometry" />
        </mxCell>
        <mxCell id="3TYF7wO166dfYitTr4Mq-29" style="edgeStyle=orthogonalEdgeStyle;rounded=0;orthogonalLoop=1;jettySize=auto;html=1;entryX=0;entryY=0.5;entryDx=0;entryDy=0;endArrow=none;endFill=0;" edge="1" parent="1" source="3TYF7wO166dfYitTr4Mq-30" target="3TYF7wO166dfYitTr4Mq-12">
          <mxGeometry relative="1" as="geometry" />
        </mxCell>
        <mxCell id="3TYF7wO166dfYitTr4Mq-30" value="pertenece" style="shape=rhombus;perimeter=rhombusPerimeter;whiteSpace=wrap;html=1;align=center;fillColor=#fff2cc;strokeColor=#d6b656;fontSize=15;" vertex="1" parent="1">
          <mxGeometry x="190" y="-1940" width="95" height="40" as="geometry" />
        </mxCell>
        <mxCell id="3TYF7wO166dfYitTr4Mq-31" style="edgeStyle=orthogonalEdgeStyle;rounded=0;orthogonalLoop=1;jettySize=auto;html=1;endArrow=none;endFill=0;" edge="1" parent="1" source="3TYF7wO166dfYitTr4Mq-32" target="3TYF7wO166dfYitTr4Mq-30">
          <mxGeometry relative="1" as="geometry" />
        </mxCell>
        <mxCell id="3TYF7wO166dfYitTr4Mq-32" value="HABITACIÓN" style="rounded=1;whiteSpace=wrap;html=1;fillColor=#d5e8d4;strokeColor=#82b366;fontStyle=1;align=center;" vertex="1" parent="1">
          <mxGeometry x="40" y="-1940" width="95" height="40" as="geometry" />
        </mxCell>
        <mxCell id="3TYF7wO166dfYitTr4Mq-33" value="&lt;b&gt;N:M&lt;/b&gt;" style="text;html=1;strokeColor=none;fillColor=none;align=center;verticalAlign=middle;whiteSpace=wrap;rounded=0;" vertex="1" parent="1">
          <mxGeometry x="207.5" y="-2310" width="60" height="30" as="geometry" />
        </mxCell>
      </root>
    </mxGraphModel>
  </diagram>
</mxfile>
